<?xml version="1.0" standalone="no"?>
<!DOCTYPE svg PUBLIC "-//W3C//DTD SVG 20010904//EN"
 "http://www.w3.org/TR/2001/REC-SVG-20010904/DTD/svg10.dtd">
<svg version="1.0" xmlns="http://www.w3.org/2000/svg"
 width="270.000000pt" height="270.000000pt" viewBox="0 0 270.000000 270.000000"
 preserveAspectRatio="xMidYMid meet">
<metadata>
Created by potrace 1.11, written by Peter Selinger 2001-2013
</metadata>
<g transform="translate(0.000000,270.000000) scale(0.100000,-0.100000)"
fill="#000000" stroke="none">
<path d="M1149 2695 c-2 -2 -24 -6 -48 -10 -23 -3 -54 -10 -67 -15 -13 -5 -24
-7 -24 -5 0 3 -15 -1 -32 -8 -18 -8 -35 -14 -38 -15 -3 0 -18 -5 -33 -11 -16
-6 -30 -11 -33 -11 -16 0 -199 -93 -242 -124 -28 -20 -54 -36 -57 -36 -3 0
-13 -8 -24 -17 -10 -10 -28 -25 -39 -34 -48 -35 -184 -172 -212 -214 -129
-189 -205 -342 -237 -480 -32 -136 -41 -231 -39 -376 2 -86 6 -161 9 -165 3
-5 8 -25 11 -45 29 -187 146 -441 273 -594 147 -177 336 -317 536 -396 62 -25
202 -68 237 -73 14 -2 50 -8 80 -13 69 -10 307 -10 380 1 61 9 237 53 254 64
6 3 17 7 24 8 23 4 206 96 238 121 17 12 36 23 42 23 6 0 12 3 14 8 2 4 28 26
58 49 55 41 160 139 160 148 0 2 12 17 28 33 45 48 58 66 130 177 29 46 102
205 125 275 48 147 61 234 62 410 0 171 -11 248 -57 405 -33 112 -148 341
-189 375 -3 3 -8 10 -10 17 -6 17 -98 121 -156 177 -130 123 -332 245 -493
297 -151 48 -225 58 -431 58 -108 0 -198 -2 -200 -4z"/>
</g>
</svg>
